<?xml version="1.0" standalone="no"?>
<!DOCTYPE svg PUBLIC "-//W3C//DTD SVG 20010904//EN"
 "http://www.w3.org/TR/2001/REC-SVG-20010904/DTD/svg10.dtd">
<svg version="1.0" xmlns="http://www.w3.org/2000/svg"
 width="150.000000pt" height="150.000000pt" viewBox="0 0 150.000000 150.000000"
 preserveAspectRatio="xMidYMid meet">
<metadata>
Created by potrace 1.11, written by Peter Selinger 2001-2013
</metadata>
<g transform="translate(0.000000,150.000000) scale(0.100000,-0.100000)"
fill="#000000" stroke="none">
<path d="M640 1233 c-44 -17 -138 -94 -165 -136 -23 -36 -36 -279 -15 -292 7
-4 16 -2 22 6 6 10 7 4 3 -18 -5 -23 -1 -36 13 -50 32 -30 34 -78 2 -70 -11 3
-20 1 -20 -4 0 -5 7 -10 15 -10 8 -1 20 -2 27 -3 6 0 13 -7 16 -15 3 -10 -1
-12 -14 -8 -18 7 -18 6 -1 -7 9 -7 17 -17 17 -21 0 -4 -6 -3 -13 3 -14 12 -60
5 -52 -8 3 -5 -5 -6 -17 -2 -21 5 -22 4 -9 -11 7 -9 10 -17 5 -17 -5 0 2 -7
14 -16 12 -8 22 -22 22 -31 0 -12 -7 -9 -26 11 -40 39 -51 32 -13 -9 31 -32
34 -33 51 -18 11 10 18 12 18 5 0 -21 19 -12 23 10 4 21 4 20 6 -3 1 -30 -33
-58 -71 -60 -13 0 -17 -3 -10 -6 11 -4 -99 -62 -178 -93 -123 -47 -240 -115
-240 -140 0 -5 -11 -26 -25 -46 -21 -30 -25 -49 -25 -105 l0 -69 750 0 750 0
0 63 c0 57 -4 69 -38 118 -45 64 -64 77 -286 194 -155 82 -174 95 -203 139
l-33 48 0 -60 c0 -75 -9 -100 -65 -175 -25 -32 -45 -67 -45 -76 0 -9 -6 -23
-12 -29 -7 -7 -22 -47 -34 -90 l-20 -77 -18 54 c-10 29 -34 71 -53 92 -32 35
-34 40 -19 54 18 18 21 35 7 35 -5 0 -12 13 -16 30 -4 16 -11 30 -16 30 -6 0
-8 4 -5 9 3 4 29 -3 57 -17 47 -23 54 -24 77 -11 13 8 32 25 41 39 l16 24 -33
-19 c-24 -15 -37 -17 -49 -9 -23 15 -28 34 -8 34 12 0 145 85 145 93 0 1 -38
0 -85 -2 -100 -4 -119 5 -153 70 -12 24 -28 52 -35 61 -20 30 4 42 42 21 24
-14 33 -15 39 -6 5 7 42 15 90 18 67 5 83 3 88 -9 5 -13 11 -11 40 7 18 12 34
28 34 35 0 23 -20 52 -35 52 -19 0 -19 -4 0 -40 l16 -30 -130 0 c-122 0 -129
1 -124 19 6 25 -10 33 -42 21 -20 -7 -32 -6 -49 5 -21 14 -24 14 -29 0 -4 -8
-3 -15 2 -15 4 0 12 -21 18 -46 12 -53 -2 -46 -22 12 -9 26 -10 45 -4 57 7 12
6 22 -6 33 -9 10 -15 33 -15 64 0 64 8 84 26 69 8 -6 11 -15 8 -20 -10 -17 46
-22 65 -5 10 9 21 13 25 9 9 -9 58 -11 66 -3 3 3 14 10 25 16 55 30 13 67 -80
70 -94 3 -91 2 -77 16 19 19 14 37 -20 68 l-32 30 19 26 c27 35 83 53 186 60
136 9 177 -17 203 -129 l13 -54 -61 -7 c-41 -4 -67 -13 -81 -26 -19 -20 -19
-20 1 -41 15 -15 38 -22 83 -26 33 -2 61 -1 61 4 0 16 -24 33 -47 33 -13 0
-23 5 -23 10 0 16 57 12 74 -6 9 -8 17 -25 17 -37 1 -13 4 -7 8 13 15 83 -29
220 -90 276 -65 59 -100 74 -175 73 -38 0 -76 -3 -84 -6z m10 -323 c-20 -13
-43 -13 -35 0 3 6 16 10 28 10 18 0 19 -2 7 -10z m-105 -341 c11 -16 2 -19
-38 -12 -20 3 -34 9 -31 14 7 13 62 11 69 -2z m58 -116 c-4 -11 -3 -14 5 -9 7
4 12 3 12 -3 0 -5 -4 -12 -9 -15 -11 -7 -23 22 -15 35 9 15 14 10 7 -8z m24
-55 c-3 -8 -6 -5 -6 6 -1 11 2 17 5 13 3 -3 4 -12 1 -19z"/>
<path d="M885 850 c27 -12 35 -12 35 0 0 6 -12 10 -27 9 -25 0 -26 -1 -8 -9z"/>
<path d="M635 840 l-30 -8 30 -1 c17 0 37 4 45 9 13 9 13 10 0 9 -8 -1 -28 -5
-45 -9z"/>
<path d="M700 744 c0 -6 10 -20 23 -32 23 -22 33 -22 105 0 39 12 43 32 5 25
-15 -3 -35 -1 -45 4 -10 5 -26 5 -41 0 -16 -6 -28 -6 -36 2 -7 7 -11 7 -11 1z"/>
<path d="M430 670 c0 -5 5 -10 11 -10 5 0 7 5 4 10 -3 6 -8 10 -11 10 -2 0 -4
-4 -4 -10z"/>
<path d="M485 630 c3 -5 8 -10 11 -10 2 0 4 5 4 10 0 6 -5 10 -11 10 -5 0 -7
-4 -4 -10z"/>
<path d="M399 593 c-13 -15 -12 -15 9 -4 23 12 28 21 13 21 -5 0 -15 -7 -22
-17z"/>
<path d="M773 563 c9 -2 23 -2 30 0 6 3 -1 5 -18 5 -16 0 -22 -2 -12 -5z"/>
<path d="M385 500 c-3 -5 -2 -10 4 -10 5 0 13 5 16 10 3 6 2 10 -4 10 -5 0
-13 -4 -16 -10z"/>
<path d="M388 453 c7 -3 16 -2 19 1 4 3 -2 6 -13 5 -11 0 -14 -3 -6 -6z"/>
<path d="M348 433 c7 -3 16 -2 19 1 4 3 -2 6 -13 5 -11 0 -14 -3 -6 -6z"/>
<path d="M5 189 c-4 -6 -5 -12 -2 -15 2 -3 7 2 10 11 7 17 1 20 -8 4z"/>
</g>
</svg>
